<mxfile host="65bd71144e">
    <diagram name="Seite-1" id="gc1YbI-Wx7_Q_iwZn_eA">
        <mxGraphModel dx="3064" dy="2032" grid="1" gridSize="10" guides="1" tooltips="1" connect="1" arrows="1" fold="1" page="1" pageScale="1" pageWidth="1169" pageHeight="827" math="0" shadow="0">
            <root>
                <mxCell id="0"/>
                <mxCell id="1" parent="0"/>
                <mxCell id="ejHJoWQ4-AMJ1VvW92XO-7" style="edgeStyle=orthogonalEdgeStyle;rounded=0;orthogonalLoop=1;jettySize=auto;html=1;entryX=0;entryY=0.5;entryDx=0;entryDy=0;" parent="1" edge="1">
                    <mxGeometry relative="1" as="geometry">
                        <mxPoint x="280" y="200" as="sourcePoint"/>
                        <mxPoint x="480" y="200" as="targetPoint"/>
                    </mxGeometry>
                </mxCell>
                <mxCell id="ejHJoWQ4-AMJ1VvW92XO-9" style="edgeStyle=orthogonalEdgeStyle;rounded=0;orthogonalLoop=1;jettySize=auto;html=1;entryX=0.5;entryY=0;entryDx=0;entryDy=0;" parent="1" edge="1">
                    <mxGeometry relative="1" as="geometry">
                        <mxPoint x="220" y="240" as="sourcePoint"/>
                        <mxPoint x="220" y="360" as="targetPoint"/>
                    </mxGeometry>
                </mxCell>
                <mxCell id="ejHJoWQ4-AMJ1VvW92XO-10" style="edgeStyle=orthogonalEdgeStyle;rounded=1;orthogonalLoop=1;jettySize=auto;html=1;entryX=0.5;entryY=0;entryDx=0;entryDy=0;" parent="1" edge="1">
                    <mxGeometry relative="1" as="geometry">
                        <Array as="points">
                            <mxPoint x="440" y="200"/>
                            <mxPoint x="440" y="320"/>
                            <mxPoint x="540" y="320"/>
                        </Array>
                        <mxPoint x="280" y="200" as="sourcePoint"/>
                        <mxPoint x="540" y="360" as="targetPoint"/>
                    </mxGeometry>
                </mxCell>
                <mxCell id="ejHJoWQ4-AMJ1VvW92XO-11" style="edgeStyle=orthogonalEdgeStyle;rounded=1;orthogonalLoop=1;jettySize=auto;html=1;entryX=0.5;entryY=0;entryDx=0;entryDy=0;" parent="1" edge="1">
                    <mxGeometry relative="1" as="geometry">
                        <mxPoint x="280" y="200" as="sourcePoint"/>
                        <mxPoint x="380" y="360" as="targetPoint"/>
                    </mxGeometry>
                </mxCell>
                <mxCell id="ejHJoWQ4-AMJ1VvW92XO-8" style="edgeStyle=orthogonalEdgeStyle;rounded=0;orthogonalLoop=1;jettySize=auto;html=1;entryX=0;entryY=0.5;entryDx=0;entryDy=0;startArrow=classic;startFill=1;" parent="1" edge="1">
                    <mxGeometry relative="1" as="geometry">
                        <mxPoint x="600" y="200" as="sourcePoint"/>
                        <mxPoint x="720" y="200" as="targetPoint"/>
                    </mxGeometry>
                </mxCell>
                <mxCell id="ejHJoWQ4-AMJ1VvW92XO-12" style="edgeStyle=orthogonalEdgeStyle;rounded=1;orthogonalLoop=1;jettySize=auto;html=1;entryX=0.5;entryY=0;entryDx=0;entryDy=0;" parent="1" edge="1">
                    <mxGeometry relative="1" as="geometry">
                        <mxPoint x="600" y="200" as="sourcePoint"/>
                        <mxPoint x="700" y="360" as="targetPoint"/>
                    </mxGeometry>
                </mxCell>
                <mxCell id="ejHJoWQ4-AMJ1VvW92XO-14" style="edgeStyle=orthogonalEdgeStyle;rounded=0;orthogonalLoop=1;jettySize=auto;html=1;entryX=0.5;entryY=0;entryDx=0;entryDy=0;" parent="1" edge="1">
                    <mxGeometry relative="1" as="geometry">
                        <mxPoint x="540" y="240" as="sourcePoint"/>
                        <mxPoint x="540" y="360" as="targetPoint"/>
                    </mxGeometry>
                </mxCell>
                <mxCell id="ejHJoWQ4-AMJ1VvW92XO-15" style="edgeStyle=orthogonalEdgeStyle;rounded=1;orthogonalLoop=1;jettySize=auto;html=1;entryX=0.5;entryY=0;entryDx=0;entryDy=0;" parent="1" edge="1">
                    <mxGeometry relative="1" as="geometry">
                        <mxPoint x="480" y="200" as="sourcePoint"/>
                        <mxPoint x="380" y="360" as="targetPoint"/>
                    </mxGeometry>
                </mxCell>
                <mxCell id="ejHJoWQ4-AMJ1VvW92XO-17" style="edgeStyle=orthogonalEdgeStyle;rounded=1;orthogonalLoop=1;jettySize=auto;html=1;entryX=0.5;entryY=1;entryDx=0;entryDy=0;" parent="1" edge="1">
                    <mxGeometry relative="1" as="geometry">
                        <mxPoint x="600" y="200" as="sourcePoint"/>
                        <mxPoint x="700" y="40" as="targetPoint"/>
                    </mxGeometry>
                </mxCell>
                <mxCell id="ejHJoWQ4-AMJ1VvW92XO-21" style="edgeStyle=orthogonalEdgeStyle;rounded=1;orthogonalLoop=1;jettySize=auto;html=1;entryX=0.5;entryY=0;entryDx=0;entryDy=0;" parent="1" edge="1">
                    <mxGeometry relative="1" as="geometry">
                        <Array as="points">
                            <mxPoint x="320" y="200"/>
                            <mxPoint x="320" y="320"/>
                            <mxPoint x="220" y="320"/>
                        </Array>
                        <mxPoint x="480" y="200" as="sourcePoint"/>
                        <mxPoint x="220" y="360" as="targetPoint"/>
                    </mxGeometry>
                </mxCell>
                <mxCell id="ejHJoWQ4-AMJ1VvW92XO-18" style="edgeStyle=orthogonalEdgeStyle;rounded=1;orthogonalLoop=1;jettySize=auto;html=1;entryX=1;entryY=0.5;entryDx=0;entryDy=0;exitX=0;exitY=0.5;exitDx=0;exitDy=0;exitPerimeter=0;" parent="1" source="16" edge="1">
                    <mxGeometry relative="1" as="geometry">
                        <Array as="points">
                            <mxPoint x="360"/>
                            <mxPoint x="320"/>
                            <mxPoint x="320" y="200"/>
                        </Array>
                        <mxPoint x="360" as="sourcePoint"/>
                        <mxPoint x="280" y="200" as="targetPoint"/>
                    </mxGeometry>
                </mxCell>
                <mxCell id="ejHJoWQ4-AMJ1VvW92XO-20" style="edgeStyle=orthogonalEdgeStyle;rounded=0;orthogonalLoop=1;jettySize=auto;html=1;entryX=0.5;entryY=0;entryDx=0;entryDy=0;startArrow=classic;startFill=1;" parent="1" edge="1">
                    <mxGeometry relative="1" as="geometry">
                        <mxPoint x="220" y="40" as="sourcePoint"/>
                        <mxPoint x="220" y="160" as="targetPoint"/>
                    </mxGeometry>
                </mxCell>
                <mxCell id="aIV-wJjiKWQOADyZ_5zl-2" style="edgeStyle=orthogonalEdgeStyle;rounded=0;orthogonalLoop=1;jettySize=auto;html=1;entryX=1;entryY=0.5;entryDx=0;entryDy=0;entryPerimeter=0;" parent="1" target="16" edge="1">
                    <mxGeometry relative="1" as="geometry">
                        <mxPoint x="640" as="sourcePoint"/>
                        <mxPoint x="480" as="targetPoint"/>
                        <Array as="points">
                            <mxPoint x="510"/>
                        </Array>
                    </mxGeometry>
                </mxCell>
                <object placeholders="1" c4Name="TI-Messenger Client" c4Type="Software System" c4Description="Messenger Client im FDV" label="&lt;font style=&quot;font-size: 16px&quot;&gt;&lt;b&gt;%c4Name%&lt;/b&gt;&lt;/font&gt;&lt;div&gt;[%c4Type%]&lt;/div&gt;&lt;br&gt;&lt;div&gt;&lt;font style=&quot;font-size: 11px&quot;&gt;&lt;font color=&quot;#cccccc&quot;&gt;%c4Description%&lt;/font&gt;&lt;/div&gt;" id="2">
                    <mxCell style="rounded=1;whiteSpace=wrap;html=1;labelBackgroundColor=none;fillColor=#1061B0;fontColor=#ffffff;align=center;arcSize=0;strokeColor=#0D5091;metaEdit=1;resizable=1;points=[[0.25,0,0],[0.5,0,0],[0.75,0,0],[1,0.25,0],[1,0.5,0],[1,0.75,0],[0.75,1,0],[0.5,1,0],[0.25,1,0],[0,0.75,0],[0,0.5,0],[0,0.25,0]];imageWidth=20;imageHeight=20;movable=1;rotatable=1;deletable=1;editable=1;connectable=1;" parent="1" vertex="1">
                        <mxGeometry x="150" y="140" width="150" height="100" as="geometry"/>
                    </mxCell>
                </object>
                <object placeholders="1" c4Name="Versicherter" c4Type="Person" c4Description="Versicherter bei der gematiker" label="&lt;font style=&quot;font-size: 16px&quot;&gt;&lt;b&gt;%c4Name%&lt;/b&gt;&lt;/font&gt;&lt;div&gt;[%c4Type%]&lt;/div&gt;&lt;br&gt;&lt;div&gt;&lt;font style=&quot;font-size: 11px&quot;&gt;&lt;font color=&quot;#cccccc&quot;&gt;%c4Description%&lt;/font&gt;&lt;/div&gt;" id="5">
                    <mxCell style="html=1;fontSize=11;dashed=0;whiteSpace=wrap;fillColor=#083F75;strokeColor=#06315C;fontColor=#ffffff;shape=mxgraph.c4.person2;align=center;metaEdit=1;points=[[0.5,0,0],[1,0.5,0],[1,0.75,0],[0.75,1,0],[0.5,1,0],[0.25,1,0],[0,0.75,0],[0,0.5,0]];resizable=1;" parent="1" vertex="1">
                        <mxGeometry x="-20" y="104" width="100" height="138" as="geometry"/>
                    </mxCell>
                </object>
                <object placeholders="1" c4Name="TI-Messenger Service" c4Type="Software System" c4Description="Messenger Service fÃ¼r Versicherte" label="&lt;font style=&quot;font-size: 16px&quot;&gt;&lt;b&gt;%c4Name%&lt;/b&gt;&lt;/font&gt;&lt;div&gt;[%c4Type%]&lt;/div&gt;&lt;br&gt;&lt;div&gt;&lt;font style=&quot;font-size: 11px&quot;&gt;&lt;font color=&quot;#cccccc&quot;&gt;%c4Description%&lt;/font&gt;&lt;/div&gt;" id="6">
                    <mxCell style="rounded=1;whiteSpace=wrap;html=1;labelBackgroundColor=none;fillColor=#1061B0;fontColor=#ffffff;align=center;arcSize=0;strokeColor=#0D5091;metaEdit=1;resizable=1;points=[[0.25,0,0],[0.5,0,0],[0.75,0,0],[1,0.25,0],[1,0.5,0],[1,0.75,0],[0.75,1,0],[0.5,1,0],[0.25,1,0],[0,0.75,0],[0,0.5,0],[0,0.25,0]];imageWidth=20;imageHeight=20;movable=1;rotatable=1;deletable=1;editable=1;connectable=1;" parent="1" vertex="1">
                        <mxGeometry x="470" y="140" width="160" height="100" as="geometry"/>
                    </mxCell>
                </object>
                <object placeholders="1" c4Name="TI-Messenger Client" c4Type="Software System" c4Description="TI-Messenger fÃ¼r LE" label="&lt;font style=&quot;font-size: 16px&quot;&gt;&lt;b&gt;%c4Name%&lt;/b&gt;&lt;/font&gt;&lt;div&gt;[%c4Type%]&lt;/div&gt;&lt;br&gt;&lt;div&gt;&lt;font style=&quot;font-size: 11px&quot;&gt;&lt;font color=&quot;#cccccc&quot;&gt;%c4Description%&lt;/font&gt;&lt;/div&gt;" id="8">
                    <mxCell style="rounded=1;whiteSpace=wrap;html=1;labelBackgroundColor=none;fillColor=#8C8496;fontColor=#ffffff;align=center;arcSize=10;strokeColor=#736782;metaEdit=1;resizable=1;points=[[0.25,0,0],[0.5,0,0],[0.75,0,0],[1,0.25,0],[1,0.5,0],[1,0.75,0],[0.75,1,0],[0.5,1,0],[0.25,1,0],[0,0.75,0],[0,0.5,0],[0,0.25,0]];" parent="1" vertex="1">
                        <mxGeometry x="145" y="-40" width="150" height="80" as="geometry"/>
                    </mxCell>
                </object>
                <object placeholders="1" c4Name="TI-Messenger Fachdienst" c4Type="Software System" c4Description="Fachdienst fÃ¼r LEI und KT" label="&lt;font style=&quot;font-size: 16px&quot;&gt;&lt;b&gt;%c4Name%&lt;/b&gt;&lt;/font&gt;&lt;div&gt;[%c4Type%]&lt;/div&gt;&lt;br&gt;&lt;div&gt;&lt;font style=&quot;font-size: 11px&quot;&gt;&lt;font color=&quot;#cccccc&quot;&gt;%c4Description%&lt;/font&gt;&lt;/div&gt;" id="9">
                    <mxCell style="rounded=1;whiteSpace=wrap;html=1;labelBackgroundColor=none;fillColor=#8C8496;fontColor=#ffffff;align=center;arcSize=10;strokeColor=#736782;metaEdit=1;resizable=1;points=[[0.25,0,0],[0.5,0,0],[0.75,0,0],[1,0.25,0],[1,0.5,0],[1,0.75,0],[0.75,1,0],[0.5,1,0],[0.25,1,0],[0,0.75,0],[0,0.5,0],[0,0.25,0]];" parent="1" vertex="1">
                        <mxGeometry x="720" y="160" width="150" height="80" as="geometry"/>
                    </mxCell>
                </object>
                <object placeholders="1" c4Name="Sektoraler IDP" c4Type="Software System" c4Description="IdentitÃ¤tsserver fÃ¼r die Versicherten" label="&lt;font style=&quot;font-size: 16px&quot;&gt;&lt;b&gt;%c4Name%&lt;/b&gt;&lt;/font&gt;&lt;div&gt;[%c4Type%]&lt;/div&gt;&lt;br&gt;&lt;div&gt;&lt;font style=&quot;font-size: 11px&quot;&gt;&lt;font color=&quot;#cccccc&quot;&gt;%c4Description%&lt;/font&gt;&lt;/div&gt;" id="10">
                    <mxCell style="rounded=1;whiteSpace=wrap;html=1;labelBackgroundColor=none;fillColor=#8C8496;fontColor=#ffffff;align=center;arcSize=10;strokeColor=#736782;metaEdit=1;resizable=1;points=[[0.25,0,0],[0.5,0,0],[0.75,0,0],[1,0.25,0],[1,0.5,0],[1,0.75,0],[0.75,1,0],[0.5,1,0],[0.25,1,0],[0,0.75,0],[0,0.5,0],[0,0.25,0]];" parent="1" vertex="1">
                        <mxGeometry x="310" y="360" width="150" height="80" as="geometry"/>
                    </mxCell>
                </object>
                <object placeholders="1" c4Name="TI-Messenger fÃ¼r Versicherte" c4Type="SystemScopeBoundary" c4Application="Matrix Messenger" label="&lt;font style=&quot;font-size: 16px&quot;&gt;&lt;b&gt;&lt;div style=&quot;text-align: left&quot;&gt;%c4Name%&lt;/div&gt;&lt;/b&gt;&lt;/font&gt;&lt;div style=&quot;text-align: left&quot;&gt;[%c4Application%]&lt;/div&gt;" id="13">
                    <mxCell style="rounded=1;fontSize=11;whiteSpace=wrap;html=1;dashed=1;arcSize=20;fillColor=none;strokeColor=#666666;fontColor=#333333;labelBackgroundColor=none;align=left;verticalAlign=bottom;labelBorderColor=none;spacingTop=0;spacing=10;dashPattern=8 4;metaEdit=1;rotatable=0;perimeter=rectanglePerimeter;noLabel=0;labelPadding=0;allowArrows=0;connectable=0;expand=0;recursiveResize=0;editable=1;pointerEvents=0;absoluteArcSize=1;points=[[0.25,0,0],[0.5,0,0],[0.75,0,0],[1,0.25,0],[1,0.5,0],[1,0.75,0],[0.75,1,0],[0.5,1,0],[0.25,1,0],[0,0.75,0],[0,0.5,0],[0,0.25,0]];" parent="1" vertex="1">
                        <mxGeometry x="120" y="95" width="540" height="210" as="geometry"/>
                    </mxCell>
                </object>
                <object placeholders="1" c4Type="Relationship" c4Description="uses" label="&lt;div style=&quot;text-align: left&quot;&gt;&lt;div style=&quot;text-align: center&quot;&gt;&lt;b&gt;%c4Description%&lt;/b&gt;&lt;/div&gt;" id="14">
                    <mxCell style="endArrow=blockThin;html=1;fontSize=10;fontColor=#404040;strokeWidth=1;endFill=1;strokeColor=#828282;elbow=vertical;metaEdit=1;endSize=14;startSize=14;jumpStyle=arc;jumpSize=16;rounded=0;edgeStyle=orthogonalEdgeStyle;entryX=0;entryY=0.5;entryDx=0;entryDy=0;entryPerimeter=0;exitX=1.005;exitY=0.63;exitDx=0;exitDy=0;exitPerimeter=0;" parent="1" source="5" target="2" edge="1">
                        <mxGeometry width="240" relative="1" as="geometry">
                            <mxPoint x="-200" y="280" as="sourcePoint"/>
                            <mxPoint x="40" y="280" as="targetPoint"/>
                        </mxGeometry>
                    </mxCell>
                </object>
                <object placeholders="1" c4Name="VZD-FHIR-Directory" c4Type="Software System" c4Description="zentraler Verzeichnisdienst fÃ¼r LE&amp;LEI" label="&lt;font style=&quot;font-size: 16px&quot;&gt;&lt;b&gt;%c4Name%&lt;/b&gt;&lt;/font&gt;&lt;div&gt;[%c4Type%]&lt;/div&gt;&lt;br&gt;&lt;div&gt;&lt;font style=&quot;font-size: 11px&quot;&gt;&lt;font color=&quot;#cccccc&quot;&gt;%c4Description%&lt;/font&gt;&lt;/div&gt;" id="15">
                    <mxCell style="rounded=1;whiteSpace=wrap;html=1;labelBackgroundColor=none;fillColor=#8C8496;fontColor=#ffffff;align=center;arcSize=10;strokeColor=#736782;metaEdit=1;resizable=1;points=[[0.25,0,0],[0.5,0,0],[0.75,0,0],[1,0.25,0],[1,0.5,0],[1,0.75,0],[0.75,1,0],[0.5,1,0],[0.25,1,0],[0,0.75,0],[0,0.5,0],[0,0.25,0]];" parent="1" vertex="1">
                        <mxGeometry x="470" y="360" width="160" height="80" as="geometry"/>
                    </mxCell>
                </object>
                <object placeholders="1" c4Name="Push-Provider" c4Type="Software System" c4Description="z.B. FCM, APN" label="&lt;font style=&quot;font-size: 16px&quot;&gt;&lt;b&gt;%c4Name%&lt;/b&gt;&lt;/font&gt;&lt;div&gt;[%c4Type%]&lt;/div&gt;&lt;br&gt;&lt;div&gt;&lt;font style=&quot;font-size: 11px&quot;&gt;&lt;font color=&quot;#cccccc&quot;&gt;%c4Description%&lt;/font&gt;&lt;/div&gt;" id="16">
                    <mxCell style="rounded=1;whiteSpace=wrap;html=1;labelBackgroundColor=none;fillColor=#8C8496;fontColor=#ffffff;align=center;arcSize=10;strokeColor=#736782;metaEdit=1;resizable=1;points=[[0.25,0,0],[0.5,0,0],[0.75,0,0],[1,0.25,0],[1,0.5,0],[1,0.75,0],[0.75,1,0],[0.5,1,0],[0.25,1,0],[0,0.75,0],[0,0.5,0],[0,0.25,0]];" parent="1" vertex="1">
                        <mxGeometry x="360" y="-40" width="150" height="80" as="geometry"/>
                    </mxCell>
                </object>
                <object placeholders="1" c4Name="Komponenten PKI" c4Type="Software System" c4Description="SignaturprÃ¼fung" label="&lt;font style=&quot;font-size: 16px&quot;&gt;&lt;b&gt;%c4Name%&lt;/b&gt;&lt;/font&gt;&lt;div&gt;[%c4Type%]&lt;/div&gt;&lt;br&gt;&lt;div&gt;&lt;font style=&quot;font-size: 11px&quot;&gt;&lt;font color=&quot;#cccccc&quot;&gt;%c4Description%&lt;/font&gt;&lt;/div&gt;" id="17">
                    <mxCell style="rounded=1;whiteSpace=wrap;html=1;labelBackgroundColor=none;fillColor=#8C8496;fontColor=#ffffff;align=center;arcSize=10;strokeColor=#736782;metaEdit=1;resizable=1;points=[[0.25,0,0],[0.5,0,0],[0.75,0,0],[1,0.25,0],[1,0.5,0],[1,0.75,0],[0.75,1,0],[0.5,1,0],[0.25,1,0],[0,0.75,0],[0,0.5,0],[0,0.25,0]];" parent="1" vertex="1">
                        <mxGeometry x="640" y="360" width="150" height="80" as="geometry"/>
                    </mxCell>
                </object>
                <object placeholders="1" c4Name="Zero Trust" c4Type="Software System" c4Description="" label="&lt;font style=&quot;font-size: 16px&quot;&gt;&lt;b&gt;%c4Name%&lt;/b&gt;&lt;/font&gt;&lt;div&gt;[%c4Type%]&lt;/div&gt;&lt;br&gt;&lt;div&gt;&lt;font style=&quot;font-size: 11px&quot;&gt;&lt;font color=&quot;#cccccc&quot;&gt;%c4Description%&lt;/font&gt;&lt;/div&gt;" id="18">
                    <mxCell style="rounded=1;whiteSpace=wrap;html=1;labelBackgroundColor=none;fillColor=#8C8496;fontColor=#ffffff;align=center;arcSize=10;strokeColor=#736782;metaEdit=1;resizable=1;points=[[0.25,0,0],[0.5,0,0],[0.75,0,0],[1,0.25,0],[1,0.5,0],[1,0.75,0],[0.75,1,0],[0.5,1,0],[0.25,1,0],[0,0.75,0],[0,0.5,0],[0,0.25,0]];" parent="1" vertex="1">
                        <mxGeometry x="140" y="360" width="150" height="80" as="geometry"/>
                    </mxCell>
                </object>
                <object placeholders="1" c4Name="Push-Gateway" c4Type="Software System" c4Description="Push-Gateway" label="&lt;font style=&quot;font-size: 16px&quot;&gt;&lt;b&gt;%c4Name%&lt;/b&gt;&lt;/font&gt;&lt;div&gt;[%c4Type%]&lt;/div&gt;&lt;br&gt;&lt;div&gt;&lt;font style=&quot;font-size: 11px&quot;&gt;&lt;font color=&quot;#cccccc&quot;&gt;%c4Description%&lt;/font&gt;&lt;/div&gt;" id="19">
                    <mxCell style="rounded=1;whiteSpace=wrap;html=1;labelBackgroundColor=none;fillColor=#8C8496;fontColor=#ffffff;align=center;arcSize=10;strokeColor=#736782;metaEdit=1;resizable=1;points=[[0.25,0,0],[0.5,0,0],[0.75,0,0],[1,0.25,0],[1,0.5,0],[1,0.75,0],[0.75,1,0],[0.5,1,0],[0.25,1,0],[0,0.75,0],[0,0.5,0],[0,0.25,0]];" parent="1" vertex="1">
                        <mxGeometry x="640" y="-40" width="150" height="80" as="geometry"/>
                    </mxCell>
                </object>
            </root>
        </mxGraphModel>
    </diagram>
</mxfile>